<?xml version="1.0" standalone="no"?>
<!DOCTYPE svg PUBLIC "-//W3C//DTD SVG 20010904//EN"
 "http://www.w3.org/TR/2001/REC-SVG-20010904/DTD/svg10.dtd">
<svg version="1.0" xmlns="http://www.w3.org/2000/svg"
 width="369.000000pt" height="369.000000pt" viewBox="0 0 369.000000 369.000000"
 preserveAspectRatio="xMidYMid meet">
<metadata>
Created by potrace 1.11, written by Peter Selinger 2001-2013
</metadata>
<g transform="translate(0.000000,369.000000) scale(0.100000,-0.100000)"
fill="#000000" stroke="none">
<path d="M2857 3484 c-2 -2 -22 -5 -45 -6 -27 -1 -39 -5 -35 -12 4 -6 0 -5 -9
1 -8 7 -17 10 -21 7 -6 -6 -78 -15 -144 -17 -24 -1 -43 -4 -43 -7 0 -3 -19 -6
-43 -6 -23 -1 -58 -5 -77 -8 -19 -4 -68 -9 -109 -12 -41 -3 -83 -10 -93 -15
-12 -6 -18 -6 -18 0 0 7 -9 7 -22 2 -13 -4 -29 -6 -37 -3 -10 3 -11 0 -5 -9 6
-11 5 -12 -8 -2 -8 7 -18 10 -22 6 -4 -4 -23 -8 -44 -9 -20 -1 -39 -3 -42 -4
-6 -2 -45 -6 -93 -8 -28 -1 -36 -5 -31 -14 6 -10 5 -10 -8 -1 -8 7 -17 11 -20
8 -2 -2 -35 -7 -74 -10 -38 -3 -80 -7 -94 -9 -27 -5 -81 -12 -170 -21 -30 -3
-86 -10 -125 -15 -38 -5 -104 -12 -145 -16 -97 -9 -98 -9 -106 -17 -4 -3 -14
-2 -24 3 -10 5 -20 7 -24 3 -6 -7 -38 -10 -99 -12 -25 -1 -36 -5 -31 -12 4 -8
0 -8 -15 0 -16 9 -21 9 -21 -1 0 -9 -3 -9 -10 2 -5 8 -10 10 -10 4 0 -7 -11
-9 -26 -6 -20 4 -25 2 -19 -8 5 -9 4 -11 -4 -6 -6 4 -19 2 -28 -6 -14 -11 -16
-11 -8 1 6 10 0 9 -21 -3 -30 -18 -94 -97 -94 -116 0 -5 -4 -10 -8 -10 -4 0
-8 -10 -9 -22 0 -13 -6 -48 -11 -78 -17 -88 -36 -245 -36 -307 -1 -22 -4 -39
-8 -36 -5 2 -8 -6 -7 -19 0 -13 -2 -54 -6 -93 -4 -38 -7 -89 -8 -112 -1 -24
-5 -43 -9 -43 -4 0 -4 -10 1 -23 5 -13 5 -30 1 -38 -5 -9 -10 -57 -12 -107 -2
-51 -5 -92 -8 -92 -4 0 -6 -10 -7 -22 0 -24 -11 -165 -17 -233 -12 -127 -18
-187 -22 -245 -7 -107 -12 -148 -18 -159 -4 -5 -2 -12 4 -16 6 -4 7 -12 3 -18
-7 -12 -9 -27 -17 -122 -3 -33 -8 -93 -11 -134 -4 -40 -9 -101 -10 -135 -2
-33 -4 -61 -5 -61 -2 0 -4 -19 -14 -150 -4 -49 -9 -108 -12 -130 -2 -22 -6
-74 -9 -115 -2 -41 -5 -75 -5 -75 -7 0 -6 -107 1 -131 9 -29 40 -65 64 -73 6
-2 15 -5 20 -7 6 -2 73 -20 150 -41 l140 -38 230 1 c127 1 331 4 455 8 124 4
299 9 390 11 91 2 165 4 165 5 0 0 106 3 235 6 388 8 543 15 632 30 31 5 39
11 54 47 9 23 19 51 21 62 2 10 7 22 12 25 12 7 21 65 26 184 3 56 7 112 9
126 3 14 7 68 11 120 3 52 8 118 10 145 3 28 7 88 10 135 3 47 7 101 9 120 4
33 10 118 21 280 3 41 7 98 10 125 3 28 7 88 10 135 3 47 8 110 10 140 15 178
19 242 19 302 1 38 3 68 7 68 3 0 5 10 5 23 1 24 13 209 19 272 2 22 6 78 10
125 3 47 8 110 10 140 2 30 7 87 9 125 3 39 8 104 12 146 3 43 1 94 -5 116
-11 41 -16 45 -236 163 -33 18 -66 37 -72 43 -9 6 -13 5 -13 -4 0 -11 -2 -11
-8 -2 -8 12 -67 25 -75 17z"/>
</g>
</svg>
